<?xml version="1.0" encoding="UTF-8"?>
<svg width="14px" height="16px" viewBox="0 0 14 16" version="1.1" xmlns="http://www.w3.org/2000/svg" xmlns:xlink="http://www.w3.org/1999/xlink">
    <!-- Generator: Sketch 54.1 (76490) - https://sketchapp.com -->
    <title>Shape</title>
    <desc>Created with Sketch.</desc>
    <g id="Page-1" stroke="none" stroke-width="1" fill="none" fill-rule="evenodd">
        <g id="Crocs-V2---Scroll" transform="translate(-224.000000, -739.000000)" fill="#182F0D" fill-rule="nonzero">
            <g id="Events" transform="translate(208.000000, 304.000000)">
                <g id="Cards" transform="translate(0.000000, 136.000000)">
                    <g id="Card-v1">
                        <g id="Date" transform="translate(16.000000, 299.000000)">
                            <path d="M0,3.11111111 C0,2.25555556 0.7,1.55555556 1.55555556,1.55555556 L12.4444444,1.55555556 C13.3035541,1.55555556 14,2.2520015 14,3.11111111 L14,14 C14,14.8591096 13.3035541,15.5555556 12.4444444,15.5555556 L1.55555556,15.5555556 C0.696445945,15.5555556 1.72701359e-16,14.8591096 0,14 L0,3.11111111 Z M1.55555556,4.66666667 L1.55555556,14 L12.4444444,14 L12.4444444,4.66666667 L1.55555556,4.66666667 Z M3.11111111,0 L4.66666667,0 L4.66666667,1.55555556 L3.11111111,1.55555556 L3.11111111,0 Z M9.33333333,0 L10.8888889,0 L10.8888889,1.55555556 L9.33333333,1.55555556 L9.33333333,0 Z M3.11111111,7 L4.66666667,7 L4.66666667,8.55555556 L3.11111111,8.55555556 L3.11111111,7 Z M3.11111111,10.1111111 L4.66666667,10.1111111 L4.66666667,11.6666667 L3.11111111,11.6666667 L3.11111111,10.1111111 Z M6.22222222,7 L7.77777778,7 L7.77777778,8.55555556 L6.22222222,8.55555556 L6.22222222,7 Z M6.22222222,10.1111111 L7.77777778,10.1111111 L7.77777778,11.6666667 L6.22222222,11.6666667 L6.22222222,10.1111111 Z M9.33333333,7 L10.8888889,7 L10.8888889,8.55555556 L9.33333333,8.55555556 L9.33333333,7 Z M9.33333333,10.1111111 L10.8888889,10.1111111 L10.8888889,11.6666667 L9.33333333,11.6666667 L9.33333333,10.1111111 Z" id="Shape"></path>
                        </g>
                    </g>
                </g>
            </g>
        </g>
    </g>
</svg>